HIERARCHY
ROOT hip
{
	OFFSET 0.000000 0.000000 0.000000 
	CHANNELS 6 Xposition Yposition Zposition Xrotation Zrotation Yrotation
	JOINT abdomen
	{
		OFFSET 0.000000 3.402643 0.000000 
		CHANNELS 3 Xrotation Zrotation Yrotation
		JOINT chest
		{
			OFFSET 0.000000 8.438565 -0.680529 
			CHANNELS 3 Xrotation Zrotation Yrotation
			JOINT neck
			{
				OFFSET 0.000000 10.207942 -0.272212 
				CHANNELS 3 Xrotation Zrotation Yrotation
				JOINT head
				{
					OFFSET 0.000000 3.130431 0.000000 
					CHANNELS 3 Xrotation Zrotation Yrotation
					End Site
					{
						OFFSET 0.000000 3.130435 0.000000 
					}
				}
			}
			JOINT lCollar
			{
				OFFSET 3.470700 6.669187 -0.816635 
				CHANNELS 3 Yrotation Zrotation Xrotation
				JOINT lShldr
				{
					OFFSET 3.198488 0.000000 0.000000 
					CHANNELS 3 Zrotation Yrotation Xrotation
					JOINT lForeArm
					{
						OFFSET 10.139888 0.000000 0.000000 
						CHANNELS 3 Yrotation Zrotation Xrotation
						JOINT lHand
						{
							OFFSET 8.370511 0.000000 0.000000 
							CHANNELS 3 Zrotation Yrotation Xrotation
							End Site
							{
								OFFSET 4.083176 0.000000 0.000000 
							}
						}
					}
				}
			}
			JOINT rCollar
			{
				OFFSET -3.470700 6.669187 -0.816635 
				CHANNELS 3 Yrotation Zrotation Xrotation
				JOINT rShldr
				{
					OFFSET -3.198488 0.000000 0.000000 
					CHANNELS 3 Zrotation Yrotation Xrotation
					JOINT rForeArm
					{
						OFFSET -10.139888 0.000000 0.000000 
						CHANNELS 3 Yrotation Zrotation Xrotation
						JOINT rHand
						{
							OFFSET -8.370511 0.000000 0.000000 
							CHANNELS 3 Zrotation Yrotation Xrotation
							End Site
							{
								OFFSET -4.083176 0.000000 0.000000 
							}
						}
					}
				}
			}
		}
	}
	JOINT lThigh
	{
		OFFSET 5.308129 -1.633274 1.361059 
		CHANNELS 3 Xrotation Zrotation Yrotation
		JOINT lShin
		{
			OFFSET -2.041588 -20.007561 0.000000 
			CHANNELS 3 Xrotation Zrotation Yrotation
			JOINT lFoot
			{
				OFFSET 0.000000 -19.190928 -1.224953 
				CHANNELS 3 Xrotation Yrotation Zrotation
				End Site
				{
					OFFSET 0.000000 -2.449906 4.627600 
				}
			}
		}
	}
	JOINT rThigh
	{
		OFFSET -5.308129 -1.633274 1.361059 
		CHANNELS 3 Xrotation Zrotation Yrotation
		JOINT rShin
		{
			OFFSET 2.041588 -20.007561 0.000000 
			CHANNELS 3 Xrotation Zrotation Yrotation
			JOINT rFoot
			{
				OFFSET 0.000000 -19.190928 -1.224953 
				CHANNELS 3 Xrotation Yrotation Zrotation
				End Site
				{
					OFFSET 0.000000 -2.449906 4.627600 
				}
			}
		}
	}
}
MOTION
Frames: 20
Frame Time: 0.016667
-0.374773 43.080475 -2.917852 0.836544 -7.128150 33.118401 -20.802401 3.492370 1.859910 15.180400 2.508460 1.268140 34.793499 4.384330 11.330000 -8.603520 0.000000 0.000000 2.000000 -2.000000 0.000000 -84.591904 7.490550 -149.858994 80.166496 -0.238199 0.134756 5.399060 1.361830 -164.570999 -2.000000 2.000000 0.000000 79.696602 -8.551820 -155.955994 -73.662598 0.253307 0.131208 -177.792999 173.570999 -4.916790 -11.159004 -0.955360 4.592614 32.975243 2.660851 2.428737 -19.207249 15.773109 4.538444 -24.150019 5.608809 -6.963017 43.575100 -1.759840 -3.296077 -18.906866 -17.040264 -7.611536 
-0.559060 43.079578 -2.802211 0.994332 -7.274310 31.592600 -20.906401 3.548930 2.094960 15.219600 2.469730 1.400430 34.667900 3.895260 11.770000 -8.603520 0.000000 0.000000 2.000000 -2.000000 0.000000 -84.473503 7.521850 -148.882004 80.518097 -0.237372 0.134896 5.376990 1.433200 -165.391006 -2.000000 2.000000 0.000000 79.459099 -7.971860 -153.182007 -74.941902 0.250368 0.132034 -177.882996 173.531006 -5.762240 -11.285394 -0.583790 5.281692 33.153862 2.643858 2.450061 -19.302225 16.492941 4.929093 -23.603539 6.123489 -6.893517 42.025757 -1.807686 -3.237986 -19.279634 -15.933594 -7.311904 
-0.722970 43.085415 -2.680043 1.181830 -7.439840 30.363300 -21.020700 3.479870 2.188990 15.327900 2.275660 1.452120 34.513302 3.427750 12.289400 -8.603520 0.000000 0.000000 2.000000 -2.000000 0.000000 -84.345398 7.474830 -147.992004 80.889198 -0.236498 0.135039 5.350660 1.535420 -166.552994 -2.000000 2.000000 0.000000 79.358299 -7.293740 -150.582001 -76.123596 0.247638 0.132739 -177.919998 173.514999 -6.077130 -11.447620 -0.276337 5.663112 33.302383 2.631344 2.463907 -19.381247 17.201391 5.266503 -23.131599 6.523567 -7.196831 40.447464 -1.836550 -3.172113 -19.557163 -15.173890 -7.095665 
-0.875186 43.101246 -2.550214 1.359590 -7.595540 29.321199 -21.156401 3.407130 2.189790 15.387200 2.081350 1.452490 34.408600 2.966560 12.814600 -8.603520 0.000000 0.000000 2.000000 -2.000000 0.000000 -84.363998 7.437300 -147.231003 81.279800 -0.235577 0.135184 5.307020 1.668590 -168.046997 -2.000000 2.000000 0.000000 79.286903 -6.624720 -148.235992 -77.207603 0.245121 0.133335 -177.871002 173.539993 -5.663020 -11.612444 -0.004768 5.889196 33.469410 2.628431 2.469983 -19.522182 17.770988 5.592176 -22.734690 6.851203 -7.845662 39.131409 -1.878252 -3.083575 -19.755163 -14.500198 -6.847597 
-1.036415 43.108772 -2.411229 1.547170 -7.702300 28.112200 -21.300699 3.377710 2.278420 15.397400 1.964670 1.502440 34.343399 2.513870 13.346000 -8.603520 0.000000 0.000000 2.000000 -2.000000 0.000000 -84.489998 7.380110 -146.526993 81.680199 -0.234632 0.135325 5.254080 1.812360 -169.677994 -2.000000 2.000000 0.000000 79.274300 -6.003900 -146.154999 -78.232903 0.242730 0.133856 -177.755005 173.578003 -4.582480 -11.688666 0.316033 6.408923 33.597866 2.622461 2.485608 -19.634893 18.325428 5.890759 -22.339230 7.235426 -8.209091 37.956161 -1.871551 -3.032521 -19.728893 -13.769474 -6.541169 
-1.206613 43.101505 -2.271042 1.724950 -7.799240 26.738001 -21.434601 3.394110 2.434300 15.397700 1.857680 1.580440 34.326599 2.062750 13.895000 -8.603520 0.000000 0.000000 2.000000 -2.000000 0.000000 -84.625702 7.244800 -145.813995 82.070801 -0.233709 0.135457 5.202970 1.956030 -171.309006 -2.000000 2.000000 0.000000 79.320503 -5.411790 -144.317993 -79.219299 0.240422 0.134316 -177.580002 173.645004 -3.048990 -11.716664 0.702707 7.244549 33.746883 2.613465 2.519360 -19.660233 18.840050 6.185738 -22.096663 7.710334 -7.995706 37.210278 -1.895172 -3.000051 -19.715031 -12.903610 -6.142680 
-1.372987 43.096054 -2.136270 1.853470 -7.886550 25.399599 -21.548901 3.391490 2.566650 15.388300 1.702040 1.652780 34.370899 1.657010 14.483400 -8.603520 0.000000 0.000000 2.000000 -2.000000 0.000000 -84.712502 7.011950 -145.042007 82.500504 -0.232693 0.135594 -174.860001 177.880997 6.893900 -2.000000 2.000000 0.000000 79.415703 -4.819260 -142.666000 -80.195801 0.238130 0.134733 -177.419998 173.716995 -1.534890 -11.795492 1.134700 8.042520 34.081993 2.591090 2.526534 -19.771999 19.243034 6.451585 -21.815060 8.229084 -7.279284 36.513981 -1.899512 -2.960079 -19.594898 -11.885178 -5.675200 
-1.529732 43.088531 -2.010057 1.913220 -8.013170 24.186199 -21.635000 3.390380 2.647340 15.379100 1.488050 1.701160 34.465900 1.265910 15.079200 -8.603520 0.000000 0.000000 2.000000 -2.000000 0.000000 -84.828598 6.700850 -144.319000 82.969299 -0.231584 0.135735 -174.936996 177.727997 5.018060 -2.000000 2.000000 0.000000 79.520897 -4.236040 -141.218994 -81.162598 0.235853 0.135106 -177.313995 173.764999 -0.571856 -12.020585 1.648435 8.718151 34.808895 2.586986 2.571330 -20.038353 19.456757 6.670387 -21.601025 8.783969 -6.459162 36.082115 -1.907472 -2.933743 -19.428877 -10.777221 -5.152031 
-1.688118 43.061138 -1.892518 1.854680 -8.150080 22.940001 -21.682600 3.445500 2.738950 15.350200 1.293470 1.766950 34.507801 0.837048 15.650400 -8.603520 0.000000 0.000000 2.000000 -2.000000 0.000000 -85.032799 6.350350 -143.772003 83.447800 -0.230450 0.135870 -174.990005 177.597000 3.493920 -2.000000 2.000000 0.000000 79.597000 -3.691500 -139.947998 -82.149002 0.233525 0.135448 -177.291000 173.774002 -0.356163 -12.209061 2.297296 9.472254 35.734207 2.550065 2.621993 -20.131491 19.650154 6.843441 -21.371618 9.402017 -5.701210 35.788280 -1.904812 -2.920648 -19.241823 -9.790696 -4.658900 
-1.842201 43.029079 -1.776911 1.697290 -8.258140 21.699200 -21.662800 3.531060 2.800370 15.321200 1.176710 1.806270 34.486801 0.327843 16.244400 -8.603520 0.000000 0.000000 2.000000 -2.000000 0.000000 -85.315399 5.940890 -143.408997 83.887199 -0.229408 0.135986 -175.037003 177.516998 2.526350 -2.000000 2.000000 0.000000 79.604897 -3.156510 -138.774994 -83.135300 0.231190 0.135749 -177.300995 173.774002 -0.454302 -12.435940 2.968381 10.167138 37.013210 2.508691 2.702729 -19.760180 19.927471 6.876284 -21.053982 10.052852 -5.102708 35.522968 -1.911261 -2.899808 -19.036921 -9.094696 -4.272157 
-1.984073 43.029976 -1.657743 1.490290 -8.317540 20.535801 -21.613899 3.601160 2.848270 15.311600 1.069720 1.845180 34.410400 -0.240359 16.826700 -8.603520 0.000000 0.000000 2.000000 -2.000000 0.000000 -85.588303 5.472770 -143.076996 84.297401 -0.228434 0.136087 -175.056000 177.477005 2.057200 -2.000000 2.000000 0.000000 79.612999 -2.660290 -137.748993 -84.072800 0.228967 0.135999 -177.253998 173.794006 -0.012148 -12.853565 3.647902 10.407104 38.804890 2.431418 2.828599 -19.292170 19.855515 6.708833 -20.608082 10.674784 -4.574672 35.159435 -1.927725 -2.884403 -18.747030 -8.648764 -3.959602 
-2.115587 43.057369 -1.540810 1.293160 -8.396330 19.497801 -21.555500 3.664590 2.878340 15.321600 0.943315 1.866710 34.313499 -0.823318 17.358400 -8.603520 0.000000 0.000000 2.000000 -2.000000 0.000000 -85.841599 4.985180 -142.714005 84.688004 -0.227507 0.136176 -175.057999 177.466995 1.998660 -2.000000 2.000000 0.000000 79.650703 -2.202770 -136.917999 -84.902901 0.226996 0.136189 -177.091995 173.875000 1.499830 -13.524268 4.362414 10.209663 41.006397 2.349158 2.941483 -18.767437 19.283329 6.321615 -20.084349 11.274353 -4.072457 34.591316 -1.921520 -2.857167 -18.343880 -8.357780 -3.730392 
-2.243686 43.072948 -1.436875 1.115700 -8.474980 18.545401 -21.497000 3.715540 2.902940 15.312000 0.816879 1.897680 34.235802 -1.376310 17.839399 -8.603520 0.000000 0.000000 2.000000 -2.000000 0.000000 -86.026497 4.507370 -142.341995 85.078598 -0.226578 0.136259 -175.054993 177.477005 2.086470 -2.000000 2.000000 0.000000 79.718102 -1.822860 -136.371002 -85.625504 0.225277 0.136332 -176.845001 174.003998 3.807660 -14.416690 5.142452 9.906351 43.532368 2.237740 3.080330 -18.038967 18.291601 5.758455 -19.659645 11.842629 -3.551651 34.199448 -1.916281 -2.835733 -18.011549 -8.104948 -3.509857 
-2.360384 43.062298 -1.345173 0.918373 -8.534080 17.577200 -21.427999 3.755350 2.953410 15.292600 0.670986 1.930370 34.133202 -1.868570 18.310801 -8.603520 0.000000 0.000000 2.000000 -2.000000 0.000000 -86.123703 3.990360 -142.039001 85.527901 -0.225510 0.136347 -175.065002 177.457001 1.842130 -2.000000 2.000000 0.000000 79.795898 -1.540010 -136.164993 -86.279800 0.223720 0.136442 -176.626007 174.130005 5.917120 -15.342037 5.901595 9.690331 46.008980 2.110737 3.217183 -16.888256 17.180477 5.077069 -19.295935 12.356023 -3.096970 33.961838 -1.946507 -2.810890 -17.774828 -7.799973 -3.292425 
-2.454949 43.047638 -1.256347 0.711035 -8.554040 16.554100 -21.318501 3.778760 3.043580 15.292800 0.476498 1.977590 33.945999 -2.293550 18.767000 -8.603520 0.000000 0.000000 2.000000 -2.000000 0.000000 -86.142799 3.473210 -141.813004 86.045403 -0.224278 0.136437 -175.100006 177.388000 1.030660 -2.000000 2.000000 0.000000 79.903503 -1.364040 -136.272003 -86.982903 0.222045 0.136541 -176.526993 174.190002 6.848910 -16.150824 6.587910 9.389469 48.368027 1.976013 3.365277 -16.093084 15.796350 4.432629 -18.906456 12.781120 -2.648090 33.843918 -1.951183 -2.805253 -17.598867 -7.419232 -3.060563 
-2.529340 43.042706 -1.165712 0.533331 -8.593380 15.466600 -21.208300 3.787370 3.150550 15.341800 0.233405 2.039240 33.684200 -2.620410 19.246901 -8.603520 0.000000 0.000000 2.000000 -2.000000 0.000000 -86.054497 2.936550 -141.567001 86.690002 -0.222743 0.136534 -175.166000 177.279999 -0.396760 -2.000000 2.000000 0.000000 80.011497 -1.285360 -136.593994 -87.822800 0.220043 0.136631 -176.567001 174.175995 6.544790 -16.906307 7.193984 8.957129 50.311924 1.870549 3.452485 -16.152525 13.973073 3.955453 -18.510057 13.204197 -2.192141 33.656361 -1.964461 -2.784298 -17.401245 -7.112096 -2.836179 
-2.585464 43.051659 -1.071899 0.444454 -8.603260 14.376200 -21.127001 3.789790 3.268280 15.371100 0.029177 2.096960 33.431900 -2.954530 19.713800 -8.603520 0.000000 0.000000 2.000000 -2.000000 0.000000 -85.897697 2.448860 -141.253998 87.412598 -0.221021 0.136623 -175.240997 177.154999 -1.872940 -2.000000 2.000000 0.000000 80.041496 -1.323640 -137.042999 -88.740700 0.217854 0.136697 -176.602997 174.151993 6.161960 -17.689848 7.634298 8.317903 51.814629 1.781250 3.535245 -17.217714 11.632175 3.499296 -18.178064 13.582264 -1.626680 33.488815 -1.968372 -2.760150 -17.184921 -6.943725 -2.680260 
-2.623738 43.069187 -0.974445 0.464077 -8.495820 13.290100 -21.084499 3.769950 3.382280 15.380800 -0.106984 2.158130 33.234100 -3.334100 20.150299 -8.603520 0.000000 0.000000 2.000000 -2.000000 0.000000 -85.711800 2.029410 -140.998993 88.096199 -0.219391 0.136687 -175.283005 177.098007 -2.665410 -2.000000 2.000000 0.000000 79.993599 -1.459380 -137.600006 -89.600098 0.215803 0.136727 -176.526001 174.199997 6.878050 -18.398232 7.782465 7.476948 52.462555 1.745161 3.567704 -18.577244 8.911952 2.883655 -17.947430 13.811222 -0.929065 33.409019 -1.984178 -2.747104 -17.002066 -6.847676 -2.557998 
-2.643082 43.088531 -0.870162 0.601861 -8.202680 12.228100 -21.050501 3.679280 3.502680 15.419900 -0.184802 2.204110 33.075199 -3.721080 20.573700 -8.603520 0.000000 0.000000 2.000000 -2.000000 0.000000 -85.565102 1.638960 -140.901001 88.691902 -0.217970 0.136726 -175.281006 177.098007 -2.616150 -2.000000 2.000000 0.000000 79.906700 -1.624290 -138.225998 -90.351997 0.214069 0.117197 3.649680 5.688480 -171.347000 -19.050100 7.566915 6.475699 52.383522 1.752397 3.553928 -19.750511 6.433431 2.204463 -17.846029 13.837384 -0.132560 33.487415 -1.988253 -2.756013 -16.884289 -6.800426 -2.455346 
-2.645902 43.110210 -0.758265 0.798370 -7.782460 11.239200 -21.026199 3.541700 3.608560 15.488200 -0.262641 2.240090 32.880699 -4.031660 21.007900 -8.603520 0.000000 0.000000 2.000000 -2.000000 0.000000 -85.379402 1.297350 -140.802994 89.268097 -0.216596 0.136751 -175.274994 177.108002 -2.518620 -2.000000 2.000000 0.000000 79.790298 -1.769850 -138.742996 -91.045303 0.212533 0.117178 3.799530 5.585540 -169.787003 -19.605232 7.077667 5.370433 51.629547 1.763736 3.532119 -20.773474 4.524508 1.603039 -17.797428 13.666050 0.644378 33.662853 -1.998437 -2.754940 -16.909132 -6.695802 -2.387916 
